M48
; DRILL file KiCad 10.0.3 date 2026-07-21T12:29:26
; FORMAT={-:-/ absolute / metric / decimal}
; #@! TF.CreationDate,2026-07-21T12:29:26-03:00
; #@! TF.GenerationSoftware,Kicad,Pcbnew,10.0.3
; #@! TF.FileFunction,Plated,1,2,PTH
FMAT,2
METRIC
; #@! TA.AperFunction,Plated,PTH,ViaDrill
T1C1.200
%
G90
G05
T1
X87.15Y-32.936
X87.15Y-37.936
X87.15Y-42.936
X87.15Y-47.936
X87.15Y-52.936
X87.15Y-57.936
X87.15Y-62.936
X87.15Y-67.936
X87.15Y-72.936
X87.15Y-77.936
X87.15Y-82.936
X87.15Y-87.936
X87.15Y-92.936
X87.15Y-97.936
X87.15Y-102.936
X87.15Y-107.936
X87.15Y-112.936
X87.15Y-117.936
X87.15Y-122.936
X87.15Y-127.936
X93.724Y-132.08
X96.04Y-33.02
X98.724Y-132.08
X101.04Y-33.02
X103.724Y-132.08
X106.04Y-33.02
X108.724Y-132.08
X111.04Y-33.02
X113.724Y-132.08
X116.04Y-33.02
X118.724Y-132.08
X121.04Y-33.02
X123.724Y-132.08
X126.04Y-33.02
X126.52Y-60.96
X126.52Y-63.5
X126.52Y-66.04
X126.52Y-68.58
X126.52Y-71.12
X126.52Y-73.66
X126.52Y-76.2
X126.52Y-78.74
X126.52Y-81.28
X126.52Y-83.82
X126.52Y-86.36
X126.52Y-88.9
X126.52Y-91.44
X126.52Y-93.98
X126.52Y-96.52
X126.52Y-106.68
X126.52Y-109.22
X128.724Y-132.08
X129.06Y-60.96
X129.06Y-63.5
X129.06Y-66.04
X129.06Y-68.58
X129.06Y-71.12
X129.06Y-73.66
X129.06Y-76.2
X129.06Y-78.74
X129.06Y-81.28
X129.06Y-83.82
X129.06Y-86.36
X129.06Y-88.9
X129.06Y-91.44
X129.06Y-93.98
X129.06Y-96.52
X131.04Y-33.02
X133.724Y-132.08
X136.04Y-33.02
X138.724Y-132.08
X141.04Y-33.02
X143.724Y-132.08
X146.04Y-33.02
X148.724Y-132.08
X151.04Y-33.02
X153.724Y-132.08
X156.04Y-33.02
X158.724Y-132.08
X159.54Y-60.96
X159.54Y-63.5
X159.54Y-66.04
X159.54Y-68.58
X159.54Y-71.12
X159.54Y-73.66
X159.54Y-76.2
X159.54Y-78.74
X161.04Y-33.02
X162.08Y-60.96
X162.08Y-63.5
X162.08Y-66.04
X162.08Y-68.58
X162.08Y-71.12
X162.08Y-73.66
X162.08Y-76.2
X162.08Y-78.74
X163.724Y-132.08
X166.04Y-33.02
X168.724Y-132.08
X171.04Y-33.02
X173.724Y-132.08
X176.04Y-33.02
X178.724Y-132.08
X181.04Y-33.02
X183.724Y-132.08
X186.04Y-33.02
X188.724Y-132.08
X191.04Y-33.02
X200.968Y-33.66
X200.968Y-38.66
X200.968Y-43.66
X200.968Y-48.66
X200.968Y-53.66
X200.968Y-58.66
X200.968Y-63.66
X200.968Y-68.66
X200.968Y-73.66
X200.968Y-78.66
X200.968Y-83.66
X200.968Y-88.66
X200.968Y-93.66
X200.968Y-98.66
X200.968Y-103.66
X200.968Y-108.66
X200.968Y-113.66
X200.968Y-118.66
X200.968Y-123.66
X200.968Y-128.66
M30
