M48
; DRILL file KiCad 10.0.3 date 2026-08-04T09:43:37
; FORMAT={-:-/ absolute / metric / decimal}
; #@! TF.CreationDate,2026-08-04T09:43:37-03:00
; #@! TF.GenerationSoftware,Kicad,Pcbnew,10.0.3
; #@! TF.FileFunction,Plated,1,2,PTH
FMAT,2
METRIC
; #@! TA.AperFunction,Plated,PTH,ViaDrill
T1C1.200
%
G90
G05
T1
X85.031Y-33.66
X85.031Y-38.66
X85.031Y-43.66
X85.031Y-48.66
X85.031Y-53.66
X85.031Y-58.66
X85.031Y-63.66
X85.031Y-68.66
X85.031Y-73.66
X85.031Y-78.66
X85.031Y-83.66
X85.031Y-88.66
X85.031Y-93.66
X85.031Y-98.66
X85.031Y-103.66
X85.031Y-108.66
X85.031Y-113.66
X85.031Y-118.66
X85.031Y-123.66
X85.031Y-128.66
X94.959Y-33.02
X97.275Y-132.08
X99.959Y-33.02
X102.275Y-132.08
X104.959Y-33.02
X107.275Y-132.08
X109.959Y-33.02
X112.275Y-132.08
X114.959Y-33.02
X117.275Y-132.08
X119.959Y-33.02
X122.275Y-132.08
X123.919Y-43.18
X123.919Y-45.72
X123.919Y-48.26
X123.919Y-50.8
X123.919Y-53.34
X123.919Y-55.88
X123.919Y-58.42
X123.919Y-60.96
X124.959Y-33.02
X126.459Y-43.18
X126.459Y-45.72
X126.459Y-48.26
X126.459Y-50.8
X126.459Y-53.34
X126.459Y-55.88
X126.459Y-58.42
X126.459Y-60.96
X127.275Y-132.08
X129.959Y-33.02
X132.275Y-132.08
X134.959Y-33.02
X137.275Y-132.08
X139.959Y-33.02
X142.275Y-132.08
X144.959Y-33.02
X147.275Y-132.08
X149.959Y-33.02
X152.275Y-132.08
X154.959Y-33.02
X156.939Y-43.18
X156.939Y-45.72
X156.939Y-48.26
X156.939Y-50.8
X156.939Y-53.34
X156.939Y-55.88
X156.939Y-58.42
X156.939Y-60.96
X156.939Y-63.5
X156.939Y-66.04
X156.939Y-68.58
X156.939Y-71.12
X156.939Y-73.66
X156.939Y-76.2
X156.939Y-78.74
X157.275Y-132.08
X159.479Y-43.18
X159.479Y-45.72
X159.479Y-48.26
X159.479Y-50.8
X159.479Y-53.34
X159.479Y-55.88
X159.479Y-58.42
X159.479Y-60.96
X159.479Y-63.5
X159.479Y-68.58
X159.479Y-71.12
X159.479Y-73.66
X159.479Y-76.2
X159.479Y-78.74
X159.479Y-88.9
X159.479Y-91.44
X159.959Y-33.02
X162.275Y-132.08
X164.959Y-33.02
X167.275Y-132.08
X169.959Y-33.02
X172.275Y-132.08
X174.959Y-33.02
X177.275Y-132.08
X179.959Y-33.02
X182.275Y-132.08
X184.959Y-33.02
X187.275Y-132.08
X189.959Y-33.02
X192.275Y-132.08
X198.849Y-32.936
X198.849Y-37.936
X198.849Y-42.936
X198.849Y-47.936
X198.849Y-52.936
X198.849Y-57.936
X198.849Y-62.936
X198.849Y-67.936
X198.849Y-72.936
X198.849Y-77.936
X198.849Y-82.936
X198.849Y-87.936
X198.849Y-92.936
X198.849Y-97.936
X198.849Y-102.936
X198.849Y-107.936
X198.849Y-112.936
X198.849Y-117.936
X198.849Y-122.936
X198.849Y-127.936
M30
